<svg preserveAspectRatio="none" width="100%" height="100%" overflow="visible" style="display: block;" viewBox="0 0 37.1009 44.5879" fill="none" xmlns="http://www.w3.org/2000/svg">
<g id="Apple">
<path id="&#60;Path&#62;" d="M30.9877 23.7117C31.0102 22.0027 31.4745 20.327 32.3373 18.8405C33.2002 17.3541 34.4335 16.1052 35.9226 15.2101C34.9766 13.8891 33.7286 12.8019 32.2778 12.035C30.8269 11.2681 29.2132 10.8425 27.5647 10.7921C24.0482 10.4311 20.6391 12.8495 18.8471 12.8495C17.0205 12.8495 14.2615 10.8279 11.2905 10.8877C9.36877 10.9484 7.49591 11.4948 5.85438 12.4736C4.21286 13.4525 2.85865 14.8304 1.9237 16.4732C-2.12621 23.3293 0.89466 33.4055 4.7742 38.9475C6.71524 41.6613 8.98373 44.6926 11.952 44.5851C14.8567 44.4673 15.9415 42.774 19.4477 42.774C22.9213 42.774 23.9391 44.5851 26.9676 44.5167C30.0845 44.4673 32.0482 41.7909 33.9212 39.0515C35.3158 37.1178 36.389 34.9807 37.1009 32.7194C35.2901 31.9705 33.7448 30.717 32.6577 29.1152C31.5706 27.5134 30.9898 25.6341 30.9877 23.7117Z" fill="var(--fill-0, black)"/>
<path id="&#60;Path&#62;_2" d="M25.268 7.14731C26.9674 5.15255 27.8047 2.58861 27.6019 0C25.0056 0.266634 22.6073 1.47994 20.8849 3.39816C20.0428 4.33527 19.3978 5.42547 18.9868 6.60645C18.5759 7.78743 18.407 9.03602 18.4899 10.2809C19.7885 10.2939 21.0732 10.0187 22.2473 9.47592C23.4214 8.93314 24.4542 8.13695 25.268 7.14731Z" fill="var(--fill-0, black)"/>
</g>
</svg>
