<svg width="141" height="29" viewBox="0 0 141 29" fill="none" xmlns="http://www.w3.org/2000/svg">
<path d="M109.591 21.7721H112.694V0.7598H109.591V21.7721ZM137.543 8.32868L133.986 17.4389H133.88L130.187 8.32868H126.844L132.381 21.0611L129.226 28.1442H132.461L140.994 8.32868H137.543ZM119.944 19.3853C118.926 19.3853 117.509 18.8727 117.509 17.6003C117.509 15.9799 119.274 15.358 120.799 15.358C122.163 15.358 122.806 15.6555 123.635 16.0606C123.393 18.007 121.735 19.3853 119.944 19.3853ZM120.318 7.8698C118.071 7.8698 115.743 8.86991 114.782 11.087L117.536 12.2484C118.125 11.087 119.221 10.7071 120.372 10.7071C121.976 10.7071 123.608 11.6803 123.635 13.4116V13.6267C123.072 13.3023 121.87 12.8166 120.398 12.8166C117.429 12.8166 114.406 14.4655 114.406 17.5465C114.406 20.3585 116.841 22.1705 119.568 22.1705C121.655 22.1705 122.806 21.2242 123.528 20.1148H123.635V21.7368H126.63V13.6805C126.63 9.9507 123.876 7.8698 120.318 7.8698ZM101.139 10.8869H96.725V3.68448H101.139C103.459 3.68448 104.776 5.62587 104.776 7.28487C104.776 8.91361 103.459 10.8869 101.139 10.8869ZM101.059 0.7598H93.6232V21.7721H96.725V13.8116H101.059C104.499 13.8116 107.88 11.2937 107.88 7.28487C107.88 3.27603 104.499 0.7598 101.059 0.7598ZM60.5101 19.3887C58.3663 19.3887 56.5718 17.575 56.5718 15.084C56.5718 12.5661 58.3663 10.7239 60.5101 10.7239C62.6273 10.7239 64.2871 12.5661 64.2871 15.084C64.2871 17.575 62.6273 19.3887 60.5101 19.3887ZM64.0742 9.50527H63.9661C63.2692 8.66653 61.9304 7.90847 60.2423 7.90847C56.7048 7.90847 53.4634 11.0483 53.4634 15.084C53.4634 19.0912 56.7048 22.2058 60.2423 22.2058C61.9304 22.2058 63.2692 21.4477 63.9661 20.5804H64.0742V21.6108C64.0742 24.3455 62.6273 25.8079 60.2955 25.8079C58.3929 25.8079 57.2137 24.4262 56.7314 23.2614L54.0255 24.3993C54.8022 26.2953 56.8661 28.6233 60.2955 28.6233C63.9395 28.6233 67.0213 26.4567 67.0213 21.1771V8.34044H64.0742V9.50527ZM69.1651 21.7721H72.2735V0.75812H69.1651V21.7721ZM76.8538 14.8403C76.7739 12.0787 78.9709 10.6701 80.5509 10.6701C81.785 10.6701 82.8294 11.292 83.177 12.1862L76.8538 14.8403ZM86.5 12.4569C85.9112 10.86 84.115 7.90847 80.4445 7.90847C76.8006 7.90847 73.7736 10.8046 73.7736 15.0571C73.7736 19.0643 76.7739 22.2058 80.7921 22.2058C84.0352 22.2058 85.9112 20.2022 86.6879 19.0374L84.2764 17.412C83.4731 18.6037 82.3737 19.3887 80.7921 19.3887C79.2121 19.3887 78.0862 18.6575 77.3627 17.2238L86.821 13.2687L86.5 12.4569ZM11.1464 10.102V13.1342H18.3262C18.1116 14.8403 17.5495 16.0858 16.6929 16.9515C15.6468 18.0087 14.012 19.1735 11.1464 19.1735C6.72408 19.1735 3.26807 15.5715 3.26807 11.1038C3.26807 6.63438 6.72408 3.03399 11.1464 3.03399C13.5313 3.03399 15.2726 3.98199 16.5582 5.20061L18.6754 3.06088C16.8792 1.32793 14.4959 5.53131e-05 11.1464 5.53131e-05C5.09088 5.53131e-05 0 4.98378 0 11.1038C0 17.2237 5.09088 22.2058 11.1464 22.2058C14.4144 22.2058 16.8792 21.1216 18.8085 19.0912C20.7926 17.0876 21.408 14.2722 21.408 11.9963C21.408 11.292 21.3547 10.6432 21.2466 10.102H11.1464ZM29.5723 19.3887C27.4285 19.3887 25.5791 17.6019 25.5791 15.0571C25.5791 12.4837 27.4285 10.7239 29.5723 10.7239C31.7144 10.7239 33.5639 12.4837 33.5639 15.0571C33.5639 17.6019 31.7144 19.3887 29.5723 19.3887ZM29.5723 7.90847C25.6589 7.90847 22.4707 10.9138 22.4707 15.0571C22.4707 19.1735 25.6589 22.2058 29.5723 22.2058C33.484 22.2058 36.6723 19.1735 36.6723 15.0571C36.6723 10.9138 33.484 7.90847 29.5723 7.90847ZM45.0612 19.3887C42.9174 19.3887 41.068 17.6019 41.068 15.0571C41.068 12.4837 42.9174 10.7239 45.0612 10.7239C47.2049 10.7239 49.0527 12.4837 49.0527 15.0571C49.0527 17.6019 47.2049 19.3887 45.0612 19.3887ZM45.0612 7.90847C41.1494 7.90847 37.9612 10.9138 37.9612 15.0571C37.9612 19.1735 41.1494 22.2058 45.0612 22.2058C48.9729 22.2058 52.1611 19.1735 52.1611 15.0571C52.1611 10.9138 48.9729 7.90847 45.0612 7.90847Z" fill="black"/>
</svg>
