<svg width="102" height="139" viewBox="0 0 101.764 138.498" fill="none" xmlns="http://www.w3.org/2000/svg">
<g id="Frame 447">
<rect id="Rectangle 269" x="20.2938" y="138.499" width="65.3056" height="85.7136" rx="6.41394" transform="rotate(-108.104 20.2938 138.499)" fill="var(--fill-0, #BBD2D9)"/>
<path id="Vector" d="M38.0588 105.469C39.5599 110.062 44.5 112.568 49.0927 111.067C57.4085 108.349 61.7561 96.0502 61.785 90.1835C58.2968 85.4664 47.5247 78.1095 39.2089 80.8276C34.6162 82.3287 32.11 87.2687 33.6111 91.8614C34.5304 94.6739 36.7393 96.704 39.3683 97.5104C37.7231 99.7139 37.1395 102.657 38.0588 105.469Z" fill="var(--fill-0, #F4F3F1)"/>
<rect id="Rectangle 270" x="2.49873" y="64.0624" width="65.3056" height="85.7136" rx="6.41394" transform="rotate(-78.7984 2.49873 64.0624)" fill="var(--fill-0, #9EC2CE)"/>
<path id="Vector_2" d="M36.5465 44.6919C35.608 49.4317 38.6895 54.0349 43.4293 54.9734C52.0114 56.6727 61.8217 48.075 64.7179 42.973C63.9844 37.1522 58.1908 25.4649 49.6086 23.7656C44.8688 22.8271 40.2657 25.9086 39.3272 30.6484C38.7524 33.551 39.6853 36.4023 41.5833 38.3922C39.0702 39.5086 37.1212 41.7894 36.5465 44.6919Z" fill="var(--fill-0, #7B9CA7)"/>
</g>
</svg>
