<svg preserveAspectRatio="none" width="100%" height="100%" overflow="visible" style="display: block;" viewBox="0 0 86.407 97.506" fill="none" xmlns="http://www.w3.org/2000/svg">
<g id="Vector">
<path fill-rule="evenodd" clip-rule="evenodd" d="M40.1116 0C61.1983 0.634186 77.6877 18.7081 77.6877 39.9532V85.1386C77.6877 90.5291 81.1751 95.2857 86.407 96.7127H63.4183V76.4193C58.6619 89.5782 46.6123 97.5057 32.8192 97.506C14.5864 97.506 0 82.9186 0 63.1003C0.000292147 45.502 13.952 33.4522 30.5991 27.4275C37.2579 25.2079 44.7093 23.9399 51.051 18.7082C53.112 17.1228 54.0642 14.7443 54.0642 12.3661C54.0642 9.35376 52.3198 6.18269 49.149 4.59722C45.978 3.1703 42.4898 2.37717 38.8432 2.37717C28.0621 2.37724 18.5495 12.6832 17.5982 24.2571L12.8413 9.98767C19.6588 3.8044 28.8549 3.06743e-05 38.8432 0H40.1116ZM57.0763 10.6225C57.0811 10.6421 57.2346 11.2714 57.2346 12.2077C57.2346 14.7445 56.2835 19.6598 48.9906 23.7819C45.344 25.6844 42.0137 27.2694 39.3184 28.2207C36.6208 29.3314 14.2681 38.0524 14.2681 63.5767V64.6868C14.5853 83.5532 21.7203 94.8091 35.3548 94.8094C46.6114 94.8094 63.4181 83.5535 63.4183 64.6868V26.9523C63.4183 21.5617 61.6737 16.4882 58.8199 12.5245C58.8036 12.506 57.7058 11.2521 57.0763 10.6225Z" fill="var(--fill-0, #557A86)"/>
<path d="M42.6005 55.7361C45.3368 60.003 53.5026 60.761 53.5026 60.761C53.5026 60.761 45.3221 60.8704 42.6005 64.8922C40.0156 68.7121 39.2327 77.0832 38.9965 82.0782C38.9912 84.4499 38.8955 86.0613 38.8955 86.0613C38.8955 86.0613 38.8843 84.4505 38.9965 82.0782C39.0076 77.0672 38.6146 68.6624 36.0604 64.8922C33.2209 60.7008 24.2883 60.761 24.2883 60.761C24.2883 60.761 33.222 60.1729 36.0604 55.7361C38.9352 51.2424 38.9916 40.2579 38.9271 36.6393C38.9007 35.8945 38.8955 35.4619 38.8955 35.4619C38.8955 35.4619 38.9139 35.8946 38.9271 36.6393C39.055 40.2472 39.6786 51.1798 42.6005 55.7361Z" fill="var(--fill-0, #557A86)"/>
</g>
</svg>
