<svg preserveAspectRatio="xMidYMid meet" width="100%" height="100%" overflow="visible" style="display: block;" viewBox="0 0 136.195 62" fill="none" xmlns="http://www.w3.org/2000/svg">
<g id="Frame 264">
<path id="Subtract" d="M45.1953 36.3177C45.1954 45.0351 48.0211 53.5726 53.1914 53.5726C58.3618 53.5725 63.8925 45.9369 63.8926 36.3177V22.1292C63.8926 20.0851 62.5098 18.3412 60.5859 17.8001H69.2432V50.1448C69.2432 52.1287 70.6262 53.9327 72.5498 54.4739H63.8926V43.1712C62.0289 50.0849 57.5203 54.9551 52.29 54.9554C45.3762 54.9554 39.7843 46.5983 39.7842 36.1976V22.1292C39.7842 20.0852 38.4619 18.3412 36.5381 17.8001H45.1953V36.3177ZM118.793 17.2591C127.15 17.2591 133.883 25.6761 133.883 36.0169C133.883 46.4178 127.15 54.8343 118.793 54.8343C110.496 54.8343 103.763 46.4178 103.763 36.0169C103.763 25.6761 110.496 17.2591 118.793 17.2591ZM18.4004 17.8001C26.3963 18.0407 32.6483 24.8945 32.6484 32.9505V50.0853C32.6485 52.1292 33.9714 53.9327 35.9551 54.4739H27.2383V46.7786C25.4347 51.7686 20.8652 54.7747 15.6348 54.7747C8.72104 54.7747 3.1897 49.2437 3.18946 41.7288C3.18946 35.0555 8.48035 30.4861 14.793 28.2015C17.3181 27.3598 20.144 26.8788 22.5488 24.8948C23.3304 24.2936 23.6904 23.3914 23.6904 22.4896C23.6904 21.3474 23.0294 20.1455 21.8272 19.5443C20.6247 19.0032 19.3017 18.7025 17.919 18.7025C13.831 18.7027 10.2242 22.6098 9.86329 26.9984L8.05958 21.5882C10.6447 19.2436 14.1315 17.8002 17.919 17.8001H18.4004ZM95.8418 17.2591C99.2687 17.2591 101.253 19.0632 103.478 22.43L98.4873 26.2777C98.4873 26.2777 98.9082 25.3153 98.9082 23.8724C98.9082 23.2111 98.7873 22.4298 98.5469 21.5882C98.1862 20.2656 97.0444 18.6421 94.9404 18.6419C89.7701 18.6419 84.2384 26.2771 84.2383 35.9564V50.1448C84.2383 52.1287 85.6212 53.9328 87.5449 54.4739H75.5811C76.5429 54.1734 77.3847 53.6324 77.9258 52.8509C78.527 52.0693 78.8877 51.1068 78.8877 50.1448V24.5941C78.8877 22.7904 77.3847 21.2874 75.5811 21.2874L84.2383 17.8001V29.1029C86.102 22.189 90.6114 17.2592 95.8418 17.2591ZM118.793 18.221C113.562 18.221 109.233 26.2177 109.233 36.0775C109.234 45.9371 113.563 53.9329 118.793 53.9329C124.084 53.9329 128.352 45.9371 128.353 36.0775C128.353 26.2177 124.084 18.221 118.793 18.221ZM24.833 21.8284C24.8336 21.8307 24.8936 22.071 24.8936 22.43C24.8935 23.3921 24.5318 25.2558 21.7666 26.8187C20.384 27.54 19.1216 28.1416 18.0996 28.5023C17.0767 28.9235 8.60071 32.2298 8.6006 41.9085V42.3294C8.72084 49.4838 11.4263 53.7523 16.5967 53.7523C20.8653 53.7522 27.2383 49.4838 27.2383 42.3294V28.0208C27.2383 25.9767 26.5763 24.0531 25.4942 22.5501C25.4917 22.5473 25.0728 22.0682 24.833 21.8284Z" fill="var(--fill-0, #F4F3F1)"/>
<path id="Vector 1374" d="M19.246 38.9361C20.2836 40.5541 23.3801 40.8416 23.3801 40.8416C23.3801 40.8416 20.2781 40.8831 19.246 42.4081C18.2658 43.8566 17.9689 47.0309 17.8794 48.9251C17.8774 49.8244 17.8411 50.4355 17.8411 50.4355C17.8411 50.4355 17.8368 49.8246 17.8794 48.9251C17.8836 47.0249 17.7346 43.8378 16.766 42.4081C15.6893 40.8187 12.302 40.8416 12.302 40.8416C12.302 40.8416 15.6897 40.6186 16.766 38.9361C17.8562 37.2321 17.8775 33.0668 17.8531 31.6946C17.8431 31.4122 17.8411 31.2481 17.8411 31.2481C17.8411 31.2481 17.8481 31.4122 17.8531 31.6946C17.9016 33.0628 18.138 37.2084 19.246 38.9361Z" fill="var(--fill-0, #F4F3F1)"/>
<path id="Vector 1375" d="M120.43 34.4719C121.468 36.0899 124.564 36.3773 124.564 36.3773C124.564 36.3773 121.462 36.4188 120.43 37.9439C119.45 39.3924 119.153 42.5667 119.063 44.4608C119.061 45.3602 119.025 45.9712 119.025 45.9712C119.025 45.9712 119.021 45.3604 119.063 44.4608C119.068 42.5606 118.919 39.3735 117.95 37.9439C116.873 36.3545 113.486 36.3773 113.486 36.3773C113.486 36.3773 116.874 36.1543 117.95 34.4719C119.04 32.7679 119.062 28.6026 119.037 27.2304C119.027 26.948 119.025 26.7839 119.025 26.7839C119.025 26.7839 119.032 26.948 119.037 27.2304C119.086 28.5985 119.322 32.7441 120.43 34.4719Z" fill="var(--fill-0, #F4F3F1)"/>
</g>
</svg>
