<svg preserveAspectRatio="none" width="100%" height="100%" overflow="visible" style="display: block;" viewBox="0 0 40.0133 45.7982" fill="none" xmlns="http://www.w3.org/2000/svg">
<g id="Playstore">
<path id="path94" d="M18.6818 21.8724L0.171069 41.9931C0.172807 41.9966 0.172807 42.002 0.174546 42.0055C0.743062 44.1903 2.69028 45.7982 5.00259 45.7982C5.92752 45.7982 6.79507 45.5418 7.53919 45.0931L7.5983 45.0575L28.4335 32.7447L18.6818 21.8724Z" fill="var(--fill-0, #EA4335)"/>
<path id="path98" d="M37.4089 18.4461L37.3915 18.4337L28.3961 13.0937L18.2619 22.3296L28.4326 32.7425L37.3793 27.4559C38.9475 26.587 40.0133 24.8937 40.0133 22.9421C40.0133 21.0013 38.9632 19.3169 37.4089 18.4461Z" fill="var(--fill-0, #FBBC04)"/>
<path id="path102" d="M0.170635 3.80454C0.0593659 4.22476 0.000254083 4.66635 0.000254083 5.12218V40.6771C0.000254083 41.1329 0.0593659 41.5745 0.172374 41.9929L19.3177 22.3868L0.170635 3.80454Z" fill="var(--fill-0, #4285F4)"/>
<path id="path106" d="M18.8191 22.899L28.3987 13.0897L7.58787 0.732349C6.83158 0.267614 5.94838 0.000526258 5.00433 0.000526258C2.69201 0.000526258 0.741323 1.61196 0.172806 3.79853C0.172806 3.80031 0.171069 3.80209 0.171069 3.80387L18.8191 22.899Z" fill="var(--fill-0, #34A853)"/>
</g>
</svg>
